<?xml version="1.0" standalone="no"?>
<!DOCTYPE svg PUBLIC "-//W3C//DTD SVG 20010904//EN"
 "http://www.w3.org/TR/2001/REC-SVG-20010904/DTD/svg10.dtd">
<svg version="1.0" xmlns="http://www.w3.org/2000/svg"
 width="960.000000pt" height="960.000000pt" viewBox="0 0 960.000000 960.000000"
 preserveAspectRatio="xMidYMid meet">
<metadata>
Created by potrace 1.11, written by Peter Selinger 2001-2013
</metadata>
<g transform="translate(0.000000,960.000000) scale(0.100000,-0.100000)"
fill="#000000" stroke="none">
<path d="M0 4800 l0 -4800 4800 0 4800 0 0 4800 0 4800 -4800 0 -4800 0 0
-4800z m4205 3576 c204 -32 459 -114 578 -186 17 -11 41 -24 52 -29 94 -45
399 -314 492 -433 106 -138 221 -362 280 -548 68 -212 128 -486 121 -552 -3
-29 -5 -26 -17 27 -7 33 -22 99 -32 147 -52 233 -144 494 -232 653 -120 218
-171 288 -307 426 -112 113 -165 158 -272 233 -67 46 -85 55 -73 36 10 -16 0
-13 -127 45 -152 70 -203 87 -358 118 -219 45 -430 58 -506 31 -17 -6 -17 -5
-4 9 8 8 31 20 50 25 52 15 253 14 355 -2z m-600 -96 c-3 -5 -14 -10 -23 -9
-14 0 -13 2 3 9 27 11 27 11 20 0z m-45 -20 c0 -5 -6 -11 -12 -12 -7 0 -18 -2
-23 -2 -18 -2 -108 -58 -170 -105 -65 -50 -245 -229 -245 -244 0 -5 -51 -77
-113 -161 -109 -144 -167 -234 -232 -358 -33 -63 -48 -71 -20 -11 88 189 147
290 290 493 122 174 345 361 476 398 45 14 49 14 49 2z m1015 -429 c183 -38
380 -103 469 -155 59 -34 127 -112 186 -212 53 -90 120 -225 145 -295 9 -24
38 -105 65 -179 26 -74 60 -166 75 -204 54 -144 136 -504 158 -696 3 -24 4
-18 5 21 2 67 44 194 74 226 32 35 92 32 127 -6 52 -56 61 -109 61 -365 0
-156 -5 -259 -15 -316 -7 -47 -13 -120 -12 -162 2 -73 0 -78 -28 -107 -32 -35
-91 -55 -142 -49 -42 5 -41 8 -46 -182 -5 -160 -26 -254 -90 -394 l-33 -71 8
-150 c5 -82 12 -285 16 -450 4 -195 8 -255 10 -172 1 70 5 127 8 127 3 0 20
-11 37 -24 46 -35 146 -82 189 -90 62 -11 68 -24 68 -145 0 -60 -6 -131 -14
-161 -8 -30 -22 -91 -31 -134 -10 -52 -36 -121 -75 -201 -33 -67 -60 -126 -60
-130 0 -7 -31 -59 -173 -288 -52 -84 -84 -116 -124 -123 -19 -4 -46 -16 -61
-29 -65 -53 -204 -103 -390 -141 -111 -22 -151 -25 -351 -26 -221 -1 -312 7
-456 38 -60 13 -77 22 -118 62 -95 93 -272 307 -340 413 -36 55 -60 204 -60
364 1 151 27 336 48 336 5 0 20 -40 32 -88 17 -65 22 -75 17 -38 -5 46 -28
152 -56 265 -25 103 -110 386 -134 445 -5 13 14 2 58 -32 144 -116 375 -248
543 -313 11 -4 36 -14 56 -23 21 -9 54 -19 75 -23 22 -3 44 -9 49 -13 12 -7
95 -30 113 -31 7 0 10 5 7 10 -3 6 -17 10 -30 10 -34 0 -213 61 -322 108 -320
142 -554 315 -709 525 -46 63 -83 134 -134 267 -19 47 -34 86 -36 88 -1 2 -23
-12 -48 -30 -55 -38 -107 -43 -147 -13 -37 28 -85 94 -105 145 -9 25 -32 60
-50 79 -19 19 -48 64 -65 100 -17 36 -35 74 -40 83 -21 41 -87 228 -103 289
-27 109 -16 204 27 234 28 19 80 19 122 -1 36 -17 145 -146 145 -171 0 -9 2
-14 5 -11 3 3 -2 40 -10 84 -56 291 -118 869 -118 1095 1 91 24 247 50 339 48
165 270 390 508 514 44 23 106 44 165 56 52 11 109 24 125 29 29 9 29 9 5 11
-14 1 -29 2 -33 1 -53 -9 -133 -18 -136 -15 -3 2 6 14 18 25 21 20 29 21 129
13 129 -10 132 -10 130 -4 -1 3 4 16 11 28 l13 24 24 -33 c19 -27 25 -29 30
-15 3 9 1 22 -5 30 -14 17 -2 29 16 14 10 -8 20 -8 39 1 32 14 34 14 34 -5 0
-12 6 -15 23 -10 12 4 51 13 87 21 36 7 85 18 110 24 63 14 278 4 385 -18z
m-1901 -673 c-33 -107 -43 -385 -19 -568 22 -174 55 -473 55 -490 -2 -18 -27
57 -40 120 -54 243 -63 323 -64 560 -1 192 2 250 17 320 21 98 22 100 46 100
17 0 18 -3 5 -42z m3276 -2978 c137 -22 151 -25 355 -71 512 -115 921 -250
1226 -404 101 -51 257 -165 326 -238 73 -78 268 -362 353 -515 59 -105 215
-424 255 -522 59 -143 79 -191 132 -330 69 -179 133 -376 177 -540 40 -149 46
-180 35 -180 -20 0 -110 207 -169 385 -34 105 -68 204 -76 222 -8 17 -14 36
-14 41 0 12 -66 190 -79 213 -11 19 -57 132 -106 259 -37 98 -42 109 -91 220
-72 162 -184 360 -273 480 -81 110 -262 286 -366 356 -79 54 -163 98 -340 179
-53 24 -364 122 -475 150 -36 9 -78 20 -95 26 -16 5 -95 25 -175 44 -80 19
-170 41 -200 50 -141 38 -511 119 -667 146 -64 11 -73 15 -73 34 0 12 2 24 5
26 7 8 204 -11 335 -31z m-2286 -227 c5 -16 2 -31 -6 -39 -37 -35 -307 -188
-488 -275 -530 -257 -860 -440 -1230 -684 -85 -56 -180 -115 -210 -131 -53
-28 -220 -184 -256 -239 -9 -14 -24 -25 -33 -25 -55 0 -253 -387 -387 -758
-26 -70 -63 -172 -83 -227 -44 -118 -177 -525 -220 -675 -17 -58 -38 -130 -47
-160 -26 -88 -76 -224 -86 -235 -25 -26 64 405 149 713 60 221 184 596 237
717 7 17 20 46 27 65 8 19 51 109 96 200 100 202 200 356 288 444 11 11 39 46
62 76 43 59 23 45 448 295 257 151 332 194 375 217 51 28 67 38 150 94 80 54
249 156 365 219 186 103 821 435 831 435 7 0 15 -12 18 -27z m-1219 -728 c-22
-13 -45 -25 -52 -25 -6 0 -13 -4 -15 -8 -1 -5 -31 -26 -66 -48 -35 -21 -74
-46 -87 -54 -13 -8 -45 -28 -72 -44 -26 -16 -77 -48 -113 -71 -125 -79 -223
-136 -232 -133 -5 2 23 24 62 48 39 25 77 50 83 55 22 20 453 275 464 275 6 0
16 7 23 15 7 8 20 15 29 15 9 0 -2 -11 -24 -25z m5572 -82 c83 -126 125 -200
190 -333 73 -148 167 -379 159 -387 -3 -4 -6 1 -6 10 0 9 -4 17 -10 17 -5 0
-10 4 -10 9 0 32 -220 477 -313 634 -84 140 -90 171 -10 50z m-6237 -323 c-8
-5 -19 -10 -25 -10 -5 0 -3 5 5 10 8 5 20 10 25 10 6 0 3 -5 -5 -10z m6605
-420 c3 -5 1 -10 -4 -10 -6 0 -11 5 -11 10 0 6 2 10 4 10 3 0 8 -4 11 -10z"/>
<path d="M4955 6835 c-14 -13 -25 -30 -25 -38 0 -7 -11 -20 -25 -27 -14 -7
-25 -17 -25 -22 0 -14 16 -9 35 12 10 11 23 20 30 20 6 0 26 11 45 25 19 14
29 25 24 25 -6 0 -14 -4 -19 -9 -6 -5 -21 -12 -35 -16 -23 -7 -22 -4 10 24 19
17 29 31 22 31 -7 0 -24 -11 -37 -25z"/>
<path d="M4798 6801 c-32 -45 -38 -72 -12 -50 15 12 16 11 10 -9 -4 -12 -5
-22 -2 -22 6 0 38 25 67 52 9 9 21 13 26 10 4 -4 0 2 -9 13 -17 19 -18 18 -44
-6 l-27 -24 17 32 c29 58 13 60 -26 4z"/>
<path d="M5210 6830 c8 -5 22 -10 30 -10 13 0 13 1 0 10 -8 5 -22 10 -30 10
-13 0 -13 -1 0 -10z"/>
<path d="M4739 6779 c-30 -40 -42 -69 -29 -69 14 0 63 77 58 91 -2 6 -15 -4
-29 -22z"/>
<path d="M5061 6796 c-9 -11 2 -14 56 -19 38 -4 86 -7 108 -6 33 0 36 2 19 9
-12 5 -25 13 -28 18 -9 15 -142 14 -155 -2z"/>
<path d="M4683 6770 c-11 -5 -29 -22 -39 -39 -10 -16 -21 -28 -26 -25 -4 3 -8
1 -8 -5 0 -5 -3 -18 -7 -28 -6 -17 -6 -17 14 0 11 9 25 17 31 17 11 0 67 79
60 85 -2 1 -13 -1 -25 -5z"/>
<path d="M4547 6689 c-10 -18 -15 -34 -11 -38 4 -3 9 0 11 7 3 6 8 10 12 7 5
-2 8 9 9 25 0 17 0 30 -1 30 -1 0 -10 -14 -20 -31z"/>
<path d="M3540 6562 c0 -4 5 -13 12 -20 17 -17 3 -26 -21 -13 -13 7 -22 8 -26
1 -3 -5 -2 -10 4 -10 6 0 8 -7 5 -15 -4 -10 -2 -13 8 -10 8 3 33 -1 56 -9 40
-15 42 -14 32 3 -8 17 -7 18 13 13 20 -5 21 -4 8 12 -17 21 -91 60 -91 48z"/>
<path d="M3620 6551 c11 -21 59 -51 81 -51 20 0 -11 30 -53 51 l-39 20 11 -20z"/>
<path d="M3693 6563 c-22 -8 -14 -20 27 -42 41 -21 90 -28 90 -13 0 13 -36 43
-43 36 -3 -3 -16 1 -29 10 -24 17 -26 17 -45 9z"/>
<path d="M3835 6540 c-8 -13 4 -32 16 -25 5 4 9 1 9 -4 0 -6 7 -11 15 -11 22
0 19 27 -4 40 -24 12 -28 13 -36 0z"/>
<path d="M3414 6504 c22 -8 42 -12 45 -8 10 9 -23 24 -54 23 -29 0 -29 -1 9
-15z"/>
<path d="M3440 6480 l-35 -7 42 -2 c23 0 45 -5 48 -11 8 -12 45 -13 45 -1 0 7
-60 35 -64 30 -1 -1 -17 -5 -36 -9z"/>
<path d="M3209 6432 c-70 -53 -91 -84 -39 -57 17 9 30 20 30 25 0 5 12 21 27
35 36 33 27 32 -18 -3z"/>
<path d="M4889 6430 c-79 -26 -130 -53 -159 -86 l-25 -28 25 17 c131 89 278
115 460 81 14 -2 3 5 -25 15 -67 26 -199 27 -276 1z"/>
<path d="M3310 6433 c-8 -3 -25 -14 -36 -25 -12 -10 -25 -18 -30 -17 -25 4
-40 -4 -51 -26 -6 -14 -7 -25 -2 -25 16 0 118 52 130 66 6 8 22 14 36 14 14 0
21 4 18 10 -7 11 -40 12 -65 3z"/>
<path d="M4919 6396 c-86 -24 -162 -70 -206 -125 -60 -73 -53 -91 9 -25 74 78
85 83 102 42 8 -18 26 -46 41 -62 24 -26 30 -28 73 -22 52 7 245 67 238 74 -3
2 -28 -1 -56 -7 -77 -17 -79 -16 -70 22 4 18 3 43 -1 55 -5 12 -4 24 1 27 11
7 175 -20 214 -35 15 -5 26 -6 26 0 0 11 -53 38 -105 52 -60 17 -213 19 -266
4z m-19 -84 c0 -13 -12 -22 -22 -16 -10 6 -1 24 13 24 5 0 9 -4 9 -8z"/>
<path d="M5748 6273 c-26 -30 -48 -81 -47 -110 l0 -28 11 25 c6 14 22 47 35
74 26 51 26 67 1 39z"/>
<path d="M3600 6213 c-42 -8 -143 -61 -185 -99 -43 -38 -34 -36 30 6 22 15 72
40 110 56 63 26 81 29 182 29 61 0 106 3 100 7 -13 8 -194 8 -237 1z"/>
<path d="M3562 6159 c-73 -27 -106 -49 -196 -131 -46 -41 -45 -63 0 -25 39 33
146 97 162 97 6 0 12 -9 12 -21 0 -11 9 -34 21 -51 12 -16 20 -31 18 -32 -2
-2 -35 -8 -74 -13 l-70 -10 84 -2 c48 0 112 6 153 16 66 16 70 18 88 58 13 28
17 54 13 77 l-5 36 38 -8 c48 -10 106 -30 119 -41 5 -5 13 -9 18 -9 18 0 -17
31 -57 53 -60 31 -248 35 -324 6z m50 -81 c-9 -9 -15 -9 -24 0 -9 9 -7 12 12
12 19 0 21 -3 12 -12z"/>
<path d="M5868 6022 c2 -86 7 -151 14 -157 13 -13 6 281 -8 295 -5 6 -8 -46
-6 -138z"/>
<path d="M5694 5925 c0 -55 1 -76 3 -47 2 29 2 74 0 100 -2 26 -3 2 -3 -53z"/>
<path d="M5725 5940 c3 -30 5 -84 6 -120 l1 -65 9 50 c7 36 5 69 -5 120 -15
70 -15 70 -11 15z"/>
<path d="M5704 5660 c0 -69 1 -97 3 -62 2 34 2 90 0 125 -2 34 -3 6 -3 -63z"/>
<path d="M2822 5726 c16 -8 34 -18 40 -21 7 -4 2 3 -12 14 -14 11 -32 21 -40
21 -8 0 -3 -7 12 -14z"/>
<path d="M5833 5717 c3 -8 9 -32 13 -51 3 -20 10 -36 15 -36 5 0 9 -7 9 -17 0
-9 3 -14 6 -10 8 8 -24 115 -38 123 -7 5 -9 2 -5 -9z"/>
<path d="M2992 5595 c0 -11 4 -33 8 -50 7 -27 8 -27 8 -5 0 14 -4 36 -8 50 -6
20 -8 21 -8 5z"/>
<path d="M2756 5546 c9 -88 84 -306 105 -306 11 0 11 6 0 28 -18 32 -64 165
-88 251 -23 86 -23 86 -17 27z"/>
<path d="M3026 5485 c6 -39 11 -52 17 -44 2 2 -2 22 -10 44 l-13 40 6 -40z"/>
<path d="M5702 5495 c0 -16 2 -22 5 -12 2 9 2 23 0 30 -3 6 -5 -1 -5 -18z"/>
<path d="M2991 5487 c-1 -27 45 -154 75 -206 53 -91 74 -132 74 -143 0 -5 6
-24 14 -41 7 -18 24 -60 36 -94 12 -35 24 -63 26 -63 6 0 -8 64 -16 75 -5 6
-13 26 -18 45 -6 19 -20 60 -31 90 -11 30 -38 107 -61 170 -28 80 -39 101 -34
70 3 -25 11 -51 16 -57 7 -9 7 -13 0 -13 -6 0 -13 10 -17 23 -3 12 -10 31 -15
42 -5 11 -18 43 -29 70 -11 28 -20 42 -20 32z"/>
<path d="M4131 5364 c0 -11 3 -14 6 -6 3 7 2 16 -1 19 -3 4 -6 -2 -5 -13z"/>
<path d="M2941 5096 c-1 -29 2 -37 10 -29 8 8 8 19 1 40 -10 28 -10 28 -11
-11z"/>
<path d="M5024 5006 c-12 -8 -50 -17 -85 -19 l-64 -3 68 -2 c61 -2 137 16 137
32 0 11 -36 6 -56 -8z"/>
<path d="M4813 4973 c9 -2 25 -2 35 0 9 3 1 5 -18 5 -19 0 -27 -2 -17 -5z"/>
<path d="M4748 4953 c6 -2 18 -2 25 0 6 3 1 5 -13 5 -14 0 -19 -2 -12 -5z"/>
<path d="M4956 4925 c-22 -19 -37 -37 -35 -39 2 -3 23 13 46 35 52 48 43 51
-11 4z"/>
<path d="M4285 4854 c-27 -8 -85 -20 -127 -27 -43 -6 -78 -15 -78 -19 0 -14
107 -9 136 7 16 8 36 15 45 15 9 0 19 3 23 8 4 4 24 12 44 18 20 7 30 12 22
12 -8 0 -37 -6 -65 -14z"/>
<path d="M4605 4639 c-5 -7 5 -8 32 -3 51 9 54 14 10 14 -20 0 -39 -5 -42 -11z"/>
<path d="M5485 4529 c-4 -6 -5 -12 -2 -15 2 -3 7 2 10 11 7 17 1 20 -8 4z"/>
<path d="M5426 4445 c-9 -26 -7 -32 5 -12 6 10 9 21 6 23 -2 3 -7 -2 -11 -11z"/>
<path d="M5395 4399 c-4 -6 -5 -12 -2 -15 2 -3 7 2 10 11 7 17 1 20 -8 4z"/>
<path d="M5365 4359 c-4 -6 -5 -12 -2 -15 2 -3 7 2 10 11 7 17 1 20 -8 4z"/>
<path d="M5309 4282 c-61 -78 -167 -189 -218 -226 -110 -81 -243 -131 -391
-147 -111 -12 -126 -20 -25 -14 75 5 185 27 230 45 88 36 144 68 209 120 67
53 173 166 228 243 33 46 5 29 -33 -21z"/>
<path d="M4508 3903 c18 -2 45 -2 60 0 15 2 0 4 -33 4 -33 0 -45 -2 -27 -4z"/>
<path d="M4651 3573 c-1 -12 4 -25 9 -28 6 -3 10 -17 10 -31 0 -14 15 -40 36
-62 l35 -37 -26 43 c-14 23 -34 64 -45 90 -12 31 -19 40 -19 25z"/>
</g>
</svg>
